<svg width="24" height="24" viewBox="0 0 24 24" fill="none" xmlns="http://www.w3.org/2000/svg">
<path d="M11.9992 8.09413C9.84877 8.09413 8.09389 9.84902 8.09389 11.9994C8.09389 14.1498 9.84877 15.9047 11.9992 15.9047C14.1496 15.9047 15.9044 14.1498 15.9044 11.9994C15.9044 9.84902 14.1496 8.09413 11.9992 8.09413ZM23.7121 11.9994C23.7121 10.3822 23.7267 8.77968 23.6359 7.16542C23.5451 5.29042 23.1173 3.62636 21.7462 2.25527C20.3722 0.881242 18.7111 0.456438 16.8361 0.365617C15.2189 0.274797 13.6163 0.289446 12.0021 0.289446C10.3849 0.289446 8.78237 0.274797 7.16811 0.365617C5.29311 0.456438 3.62905 0.884172 2.25795 2.25527C0.883928 3.62929 0.459123 5.29042 0.368303 7.16542C0.277483 8.78261 0.292131 10.3851 0.292131 11.9994C0.292131 13.6137 0.277483 15.2191 0.368303 16.8334C0.459123 18.7084 0.886858 20.3725 2.25795 21.7435C3.63198 23.1176 5.29311 23.5424 7.16811 23.6332C8.7853 23.724 10.3878 23.7094 12.0021 23.7094C13.6193 23.7094 15.2218 23.724 16.8361 23.6332C18.7111 23.5424 20.3751 23.1146 21.7462 21.7435C23.1203 20.3695 23.5451 18.7084 23.6359 16.8334C23.7296 15.2191 23.7121 13.6166 23.7121 11.9994ZM11.9992 18.0082C8.67397 18.0082 5.99037 15.3246 5.99037 11.9994C5.99037 8.67421 8.67397 5.99062 11.9992 5.99062C15.3244 5.99062 18.008 8.67421 18.008 11.9994C18.008 15.3246 15.3244 18.0082 11.9992 18.0082ZM18.254 7.14784C17.4777 7.14784 16.8507 6.52089 16.8507 5.74452C16.8507 4.96816 17.4777 4.3412 18.254 4.3412C19.0304 4.3412 19.6574 4.96816 19.6574 5.74452C19.6576 5.92888 19.6215 6.11146 19.551 6.28183C19.4806 6.45219 19.3772 6.60698 19.2469 6.73734C19.1165 6.86769 18.9617 6.97105 18.7913 7.04149C18.621 7.11194 18.4384 7.14808 18.254 7.14784Z" fill="#5F5F5F"/>
</svg>
