<svg width="29" height="24" viewBox="0 0 29 24" fill="none" xmlns="http://www.w3.org/2000/svg">
<path d="M28.5536 3.17098C27.5099 3.63348 26.3886 3.94598 25.2099 4.08723C26.4261 3.35947 27.3361 2.21406 27.7699 0.86473C26.6272 1.54347 25.3766 2.02122 24.0724 2.27723C23.1954 1.34081 22.0337 0.720138 20.7678 0.511573C19.5019 0.303007 18.2025 0.518219 17.0714 1.1238C15.9404 1.72937 15.0409 2.69143 14.5126 3.86061C13.9843 5.02979 13.8568 6.34067 14.1499 7.58973C11.8345 7.47347 9.56943 6.87167 7.50167 5.82336C5.43392 4.77506 3.60969 3.30368 2.14739 1.50473C1.64739 2.36723 1.35989 3.36723 1.35989 4.43223C1.35933 5.39097 1.59543 6.33503 2.04724 7.18065C2.49905 8.02626 3.15259 8.74728 3.94989 9.27973C3.02524 9.25031 2.12098 9.00046 1.31239 8.55098V8.62598C1.3123 9.97066 1.77743 11.274 2.62887 12.3147C3.48031 13.3555 4.66561 14.0696 5.98364 14.336C5.12587 14.5681 4.22656 14.6023 3.35364 14.436C3.72551 15.593 4.44989 16.6048 5.42535 17.3296C6.40082 18.0545 7.57854 18.4562 8.79364 18.4785C6.73094 20.0977 4.1835 20.9761 1.56114 20.9722C1.09662 20.9724 0.632488 20.9452 0.171143 20.891C2.83299 22.6024 5.93157 23.5108 9.09614 23.5072C19.8086 23.5072 25.6649 14.6347 25.6649 6.93973C25.6649 6.68973 25.6586 6.43723 25.6474 6.18723C26.7865 5.36345 27.7698 4.34335 28.5511 3.17473L28.5536 3.17098Z" fill="#5F5F5F"/>
</svg>
